<svg id="Layer_1" data-name="Layer 1" xmlns="http://www.w3.org/2000/svg" viewBox="0 0 200.01 20.44"><defs><style>.cls-1{fill:#ff8300;}</style></defs><title>accufire_logo_text</title><path class="cls-1" d="M84,12.54H77.9a4.17,4.17,0,0,1-.3,1.8c-.69,1.22-2.08,1.09-3.82,1.09H68.57c-1.44,0-2.91.21-3.85-1.34-.33-.54-.43-2.84-.39-4.83h0a9.06,9.06,0,0,1,.27-3C65.31,4.83,66.83,5,68,5h6.68c1.93,0,2.9.1,3,2.36h6A13.92,13.92,0,0,0,83,2.56C81.72.23,79.66,0,77.16,0H67.4c-2.11,0-5.66.05-7.47,1.88s-1.76,5-1.76,7.38h0v.25h0v1.81c0,3.15,0,5.36,1.83,7.28s4.8,1.83,7.25,1.83h10c1.69,0,4,0,5.51-1.65S84,13.4,84,12.54Z"/><path class="cls-1" d="M55.82,12.54H49.74a4.33,4.33,0,0,1-.3,1.8c-.7,1.22-2.09,1.09-3.83,1.09H40.4c-1.44,0-2.9.21-3.85-1.34a18.57,18.57,0,0,1-.39-4.62,10.47,10.47,0,0,1,.27-3.2C37.15,4.83,38.66,5,39.78,5h6.68c1.93,0,2.9.1,3,2.36h6a13.68,13.68,0,0,0-.62-4.8C53.56.23,51.5,0,49,0H39.24c-2.11,0-5.66.05-7.48,1.88S30,6.86,30,9.26h0v.25h0v1.81c0,3.15,0,5.36,1.84,7.28s4.79,1.83,7.25,1.83h10c1.68,0,4,0,5.51-1.65S55.82,13.4,55.82,12.54Z"/><path class="cls-1" d="M111.36,12.11V0H105.3V12.19a3.79,3.79,0,0,1-.64,2.46c-.9.93-2.56.78-3.1.78H96.64c-.87,0-2.46.15-3.42-.81A4.21,4.21,0,0,1,92.43,12h0V0H86.36V12h0c0,1.75,0,4.73,1.69,6.53,2,2.08,3.7,1.9,5.84,1.9h8.93c2.61,0,5.07.1,7-1.88S111.36,14.42,111.36,12.11Z"/><polygon class="cls-1" points="135.88 5 135.88 0 114.92 0 114.92 11.2 114.92 11.71 114.92 20.43 121.11 20.43 121.11 13.4 135.2 13.4 135.2 11.71 135.2 11.2 135.2 8.71 121.11 8.71 121.11 5 135.88 5"/><rect class="cls-1" x="139.43" width="6.19" height="20.43"/><path class="cls-1" d="M173.72,9.57c0-.09.05-.2.07-.31a8.9,8.9,0,0,0,.13-.9c.18-2-.06-5.29-1.07-6.58C171.41-.1,169.1,0,166.89,0H149.17V20.43h6.2v-5.3h8.55c.71,0,2.49-.08,3.15.58s.61,2.39.61,4.72h6.19V18.88c0-1.67.23-4.64-1.68-5.81a8,8,0,0,0-1.65-.63C172,11.88,173.21,11.52,173.72,9.57Zm-9.47.3h-8.88V5h8.93c.86,0,2.82-.15,3.43,1a3.53,3.53,0,0,1,.24,1.4,2.51,2.51,0,0,1-.57,1.84C166.55,9.93,165,9.87,164.25,9.87Z"/><polyline class="cls-1" points="177.52 12 177.52 20.43 200.01 20.43 200.01 15.43 183.71 15.43 183.71 12.31 189.43 12.31 189.43 8.22 183.71 8.22 183.71 5 199.63 5 199.63 0 177.52 0 177.52 8.48"/><path class="cls-1" d="M18.4,0H10.48L0,20H6.71l1.71-3.28H20.6l2,3.68h6.63ZM10.65,12.46,14.42,4.9l3.9,7.56Z"/></svg>