<svg id="Layer_1" data-name="Layer 1" xmlns="http://www.w3.org/2000/svg" viewBox="0 0 130.13 50.09"><defs><style>.cls-1{opacity:0.3;}.cls-2{fill:#fff;}</style></defs><title>basic-hero-title-misc</title><g class="cls-1"><path class="cls-2" d="M5.34,13V7H0V6H5.34V0h1V6h5.34V7H6.38v6Z"/><path class="cls-2" d="M34.94,13V7H29.6V6h5.34V0h1V6h5.34V7H36v6Z"/><path class="cls-2" d="M64.54,13V7H59.2V6h5.34V0h1V6h5.33V7H65.59v6Z"/><path class="cls-2" d="M94.14,13V7H88.8V6h5.34V0h1V6h5.33V7H95.19v6Z"/><path class="cls-2" d="M123.74,13V7H118.4V6h5.34V0h1.05V6h5.34V7h-5.34v6Z"/><path class="cls-2" d="M5.34,50.09v-6H0v-1H5.34v-6h1v6h5.34v1H6.38v6Z"/><path class="cls-2" d="M34.94,50.09v-6H29.6v-1h5.34v-6h1v6h5.34v1H36v6Z"/><path class="cls-2" d="M64.54,50.09v-6H59.2v-1h5.34v-6h1v6h5.33v1H65.59v6Z"/><path class="cls-2" d="M94.14,50.09v-6H88.8v-1h5.34v-6h1v6h5.33v1H95.19v6Z"/><path class="cls-2" d="M123.74,50.09v-6H118.4v-1h5.34v-6h1.05v6h5.34v1h-5.34v6Z"/></g></svg>