<svg id="Layer_1" data-name="Layer 1" xmlns="http://www.w3.org/2000/svg" viewBox="0 0 220.29 36.06"><defs><style>.cls-1{opacity:0.3;}.cls-2{fill:none;}.cls-3{fill:#fff;}</style></defs><title>footer-logo-transparent</title><g class="cls-1"><path class="cls-2" d="M72.89,23.88a3.67,3.67,0,0,0,2.68.63H79.4a3.29,3.29,0,0,0,2.42-.61,3.13,3.13,0,0,0,.51-2.06h-10A3.28,3.28,0,0,0,72.89,23.88Z"/><path class="cls-2" d="M131.05,17.16c-.48-.91-2-.79-2.68-.79h-7v3.8h6.93a4.28,4.28,0,0,0,2.46-.47h-.28v-.61h.66A3.61,3.61,0,0,0,131.05,17.16Z"/><path class="cls-2" d="M18.71,20.68h5.94v-1.8H17.76Z"/><polygon class="cls-2" points="11.26 16.29 10.14 18.54 12.42 18.54 11.26 16.29"/><rect class="cls-2" x="113.8" y="21.03" width="2.77" height="0.58"/><polygon class="cls-2" points="9.96 18.88 8.31 22.19 14.3 22.19 13.7 21.03 13.29 21.03 13.29 20.68 13.52 20.68 12.59 18.88 9.96 18.88"/><path class="cls-3" d="M65.69,22.25H60.94a3.43,3.43,0,0,1-.23,1.41c-.55.95-1.63.85-3,.85H53.65c-1.12,0-2.26.16-3-1.05a12,12,0,0,1-.3-3.76h0a7.07,7.07,0,0,1,.21-2.34c.56-1.12,1.74-1,2.61-1h5.21c1.51,0,2.27.08,2.35,1.84h4.7A10.79,10.79,0,0,0,65,14.47c-1-1.82-2.63-2-4.59-2H52.74c-1.64,0-4.41,0-5.83,1.46s-1.37,3.89-1.37,5.77h0v.19h0V21.3c0,2.46,0,4.18,1.43,5.69s3.74,1.42,5.66,1.42h7.79c1.31,0,3.12,0,4.3-1.28S65.69,22.93,65.69,22.25Z"/><path class="cls-3" d="M43.7,22.25H39a3.24,3.24,0,0,1-.24,1.41c-.54.95-1.62.85-3,.85H31.67c-1.12,0-2.27.16-3-1.05a11.91,11.91,0,0,1-.31-3.76h0a7.35,7.35,0,0,1,.21-2.34c.56-1.12,1.75-1,2.62-1H36.4c1.51,0,2.27.08,2.34,1.84h4.71A11,11,0,0,0,43,14.47c-1-1.82-2.64-2-4.59-2H30.76c-1.65,0-4.42,0-5.83,1.46s-1.38,3.89-1.38,5.77h0v.19h0V21.3c0,2.46,0,4.18,1.44,5.69s3.74,1.42,5.65,1.42h7.79c1.32,0,3.12,0,4.3-1.28S43.7,22.93,43.7,22.25Z"/><rect class="cls-3" x="82.33" y="12.47" width="4.73" height="9.54"/><rect class="cls-3" x="67.54" y="12.47" width="4.73" height="9.54"/><path class="cls-3" d="M81.82,23.9a3.29,3.29,0,0,1-2.42.61H75.57a3.67,3.67,0,0,1-2.68-.63,3.28,3.28,0,0,1-.61-2H67.54c0,1.36,0,3.69,1.32,5.09,1.55,1.62,2.89,1.48,4.55,1.48h7c2,0,4,.08,5.44-1.46s1.22-3.23,1.22-5v-.08H82.33A3.13,3.13,0,0,1,81.82,23.9Z"/><polygon class="cls-3" points="105.66 19.26 94.66 19.26 94.66 16.37 106.19 16.37 106.19 12.47 89.83 12.47 89.83 21.61 105.66 21.61 105.66 19.26"/><polygon class="cls-3" points="89.83 28.41 94.66 28.41 94.66 22.93 105.66 22.93 105.66 21.21 89.83 21.21 89.83 28.41"/><rect class="cls-3" x="108.96" y="12.47" width="4.83" height="15.95"/><path class="cls-3" d="M128.33,20.17H121.4v-3.8h7c.68,0,2.2-.12,2.68.79a2.94,2.94,0,0,1,.19,1.1,2,2,0,0,1-.45,1.44h5c.06-.26.09-.68.1-.71.14-1.59,0-4.13-.83-5.14-1.13-1.46-2.93-1.38-4.66-1.38H116.57V28.41h4.83V24.27h6.68c.55,0,1.94-.06,2.45.46s.48,1.86.48,3.68h4.83v-1.2c0-1.31.18-3.63-1.31-4.54a5.88,5.88,0,0,0-1.28-.5c1.13-.43,2.08-.71,2.47-2.23l.06-.24h-5A4.28,4.28,0,0,1,128.33,20.17Z"/><polyline class="cls-3" points="138.69 21.84 138.69 28.41 156.24 28.41 156.24 24.51 143.53 24.51 143.53 22.08 147.98 22.08 147.98 18.89 143.53 18.89 143.53 16.37 155.95 16.37 155.95 12.47 138.69 12.47 138.69 19.09"/><polygon class="cls-3" points="12.39 18.48 13.73 21.1 18.93 21.1 17.54 18.48 12.39 18.48"/><polygon class="cls-3" points="14.3 22.19 8.31 22.19 9.96 18.88 10.14 18.54 11.26 16.29 12.42 18.54 17.57 18.54 14.36 12.47 8.18 12.47 2.1 24.12 1.35 25.52 0 28.1 5.24 28.1 6.57 25.54 9.58 25.54 16.08 25.54 17.63 28.41 22.8 28.41 18.89 21.03 13.7 21.03 14.3 22.19"/></g><g class="cls-1"><rect class="cls-3" x="211.53" y="16.35" width="8.76" height="1.79"/><rect class="cls-3" x="179.89" y="16.35" width="8.76" height="1.79"/><path class="cls-3" d="M211.73,24.43h-5.22l-1.57-2.89h-9.59L194,24.43h-5.29l1.37-2.92.75-1.48L197,7.64h6.23l3.22,6.4h0l1.36,2.7h0ZM203.15,18l-3.07-6.27-3,6.27Z"/><path class="cls-3" d="M217.19,13.25c.19-3.13.11-5.47.1-5.49s0,0,0,0A77.82,77.82,0,0,1,200.19,0h-.08a72.75,72.75,0,0,1-17.06,7.7s0,0,0,0a54.75,54.75,0,0,0,.1,5.54l-3,1.17h.38l.05,0h6.46a28,28,0,0,1-.15-3.89c2.62-.84,5-1.73,7.07-2.57l1.43-2.88h9.37l1.39,2.77c2.11.86,4.56,1.79,7.23,2.66a26.52,26.52,0,0,1-.14,3.91h6.6l.06,0h.38Z"/><path class="cls-3" d="M187.68,20.69h-6.62l3.66,1.46c.4.7.83,1.41,1.3,2.1Z"/><path class="cls-3" d="M206.4,27a29.6,29.6,0,0,1-6.07,3.93A29.6,29.6,0,0,1,194.26,27h-6.17a33.06,33.06,0,0,0,12.14,9.09h.19A33,33,0,0,0,212.57,27Z"/><path class="cls-3" d="M219,20.67l-.07,0h-6.23l1.89,3.68c.52-.77,1-1.54,1.44-2.32l3.41-1.38Z"/></g></svg>