<svg id="Layer_1" data-name="Layer 1" xmlns="http://www.w3.org/2000/svg" viewBox="0 0 94.71 24.49"><defs><style>.cls-1{fill:#fff;}.cls-2{fill:#ff7b00;}</style></defs><title>scroll-top-button</title><path class="cls-1" d="M62.19,21.41H58.45V11H54.68V7.64H66V11H62.19Z"/><path class="cls-1" d="M80.79,17.38a7.22,7.22,0,0,1-1.58,2.28,7.36,7.36,0,0,1-2.34,1.51,7.84,7.84,0,0,1-5.77,0,7.36,7.36,0,0,1-2.34-1.51,7.22,7.22,0,0,1-1.58-2.28,7,7,0,0,1-.57-2.85,7.12,7.12,0,0,1,.57-2.86A7.29,7.29,0,0,1,68.76,9.4,7.56,7.56,0,0,1,71.1,7.88a7.84,7.84,0,0,1,5.77,0A7.56,7.56,0,0,1,79.21,9.4a7.29,7.29,0,0,1,1.58,2.27,7.12,7.12,0,0,1,.57,2.86A7,7,0,0,1,80.79,17.38Zm-3.63-4.19a3.45,3.45,0,0,0-.74-1.09,3.64,3.64,0,0,0-1.1-.75A3.31,3.31,0,0,0,74,11.08a3.38,3.38,0,0,0-1.34.27,3.59,3.59,0,0,0-1.09.75,3.45,3.45,0,0,0-.74,1.09,3.16,3.16,0,0,0-.28,1.34,3.19,3.19,0,0,0,.28,1.34,3.51,3.51,0,0,0,1.83,1.83A3.22,3.22,0,0,0,74,18a3.16,3.16,0,0,0,1.34-.28,3.61,3.61,0,0,0,1.1-.74,3.56,3.56,0,0,0,.74-1.09,3.35,3.35,0,0,0,.28-1.34A3.31,3.31,0,0,0,77.16,13.19Z"/><path class="cls-1" d="M94.3,14.66a5,5,0,0,1-1.11,1.59,5.2,5.2,0,0,1-1.65,1,5.47,5.47,0,0,1-2,.38H87v3.74H83.25V7.64h6.26a5.47,5.47,0,0,1,2,.38,5.05,5.05,0,0,1,1.65,1.05,4.92,4.92,0,0,1,1.52,3.59A4.9,4.9,0,0,1,94.3,14.66Zm-3.5-2.55a2.08,2.08,0,0,0-.28-.53,1.53,1.53,0,0,0-.44-.4,1,1,0,0,0-.57-.16H87v3.25h2.51a1.1,1.1,0,0,0,.57-.15,1.68,1.68,0,0,0,.44-.4,1.75,1.75,0,0,0,.28-.52,1.58,1.58,0,0,0,.11-.54A1.63,1.63,0,0,0,90.8,12.11Z"/><polygon class="cls-2" points="0 24.49 0 12.62 18 0 35.88 12.62 35.88 24.49 18 11.87 0 24.49"/></svg>