<svg id="Layer_1" data-name="Layer 1" xmlns="http://www.w3.org/2000/svg" viewBox="0 0 1399.82 75.98"><title>separator-bottom</title><path d="M0,0V27.35c4-5,8.86-7.25,15.67-7,4.36.17,9-2.24,13.23-4.05C36.7,13,44.07,8.45,52.11,6.07c4.88-1.44,10.7.1,16.08.51,5,.38,10,.94,15,1.62,2.57.35,5.08,1.15,7.62,1.74.48.12,1,.42,1.42.32,8.93-2,15.75,6,24.45,5.19.83-.07,1.87,1.25,2.68,2.06,3.87,3.84,8.73,4.8,13.18,2a16,16,0,0,1,13-2.37c5.32,1.18,11,.55,16.46,1.3,5.91.82,11.67,3,17.57,3.34,5.32.31,11,.31,15.73-3.41,3.21-2.54,8.71-1.73,11.66.95,1.75,1.59,4.24,2.47,6.51,3.4,6.15,2.5,12.38,4.83,18.56,7.28,1.51.59,2.89,1.67,4.44,2,9.35,1.93,18,5.56,26.51,9.84,6.62,3.33,13.74,4.39,20.94.43,2.57-1.41,6.51-2.91,8.73-1.91,7.52,3.36,13.88-3.14,21.15-1.7l3.93,5.58c2.59,0,5.24-.16,7.85,0,3.51.26,6.93-1,10.31,2.63,2.24,2.39,7.35,2,11.07,3.13,7,2.17,13.89,4.45,20.74,6.92,2.19.79,4.05,2.44,6.16,3.49.89.44,2.39.88,3,.45,5.53-3.92,11.64-4.24,18.15-4,7.35.28,14.76-.8,22.09-.34a13.42,13.42,0,0,1,11.83,8c5.43-.71,11.22-1.32,16.93-2.36,1.37-.25,2.36-2.16,3.74-3,4-2.35,8.92-7.11,12.09-6.19,5.38,1.57,10.13-.75,15,.3,2.4.51,4.73,1.35,7.1,2,2.1.62,4.17,1.34,6.3,1.82,5.17,1.17,9.34-1.5,13.4-4C507.38,51,511,51,515.44,51.66c5.11.72,12.28,1.85,15.53-.6,6.62-5,15.33-1.2,21.09-6.94a2,2,0,0,1,1.82.12c4.08,3.26,8.62,1.43,13.06,1.49,6.9.1,13.44.58,20,4.49,5.22,3.09,12.55,2.78,19,3.58,2.54.31,5.23-.39,7.82-.8,1.77-.28,3.49-.86,5.23-1.3l-.15-1.34c5,.46,10,.86,15,1.46a4.57,4.57,0,0,1,2.46,1.59c4.56,5.08,9.61,4.12,14.59,1a18,18,0,0,1,12.46-3,208.66,208.66,0,0,0,24,1.44c6.93,0,13.86-.73,20.78-1.37,1.33-.12,2.67-1.18,3.84-2,5-3.69,8.45-3.22,13.58.28,2.6,1.78,6.35,1.87,9.57,2.75,3.54,1,7.11,1.85,10.61,3,5.75,1.83,11.38,5.13,17.18,5.43,7.78.4,13.67,5,20.56,6.64,6.09,1.42,12.94,2.69,19.32-1.91,2.88-2.08,7.66-1.56,11.59-2.17,1.91-.3,3.87-.35,5.76-.75,3.52-.75,7-1.79,10.53-2.45.93-.17,2.58.31,3,1,2.28,4.23,5.73,3,9.36,2.71,4-.36,7.83-1.3,12.23,1.17s10.32,1.64,15.29,3.2c7.89,2.48,16.91,1.41,23.72,7.48.65.58,2.66-.16,4-.54,5.22-1.52,10.31-3.7,15.63-4.6a154.83,154.83,0,0,1,23.51-2.3c4.59-.06,9.46,1.31,11.65,7.06,5.65-1.3,11.39-2.6,17.11-4a4.9,4.9,0,0,0,1.6-1.06c4.06-3.13,8.1-6.27,12.18-9.37.49-.37,1.53-.83,1.72-.64,4.26,4.06,8.35-1.28,12.57-.15,3.41.91,7,1.38,10.38,2.24a19.22,19.22,0,0,0,17.33-3.94c4.09-3.27,8.13-4,13.25-3.44,4.77.5,11.31,1.12,14.24-1.49,6.14-5.45,14.61-3.35,20.44-8.32a3.22,3.22,0,0,1,2.76-.5c8.43,3.4,16.83-2.16,25.23,0,1.52.39,3.3.3,4.58,1.07,7.9,4.75,16.31,5.23,25.09,3.43a19,19,0,0,1,6.31-.66c7.1,1.07,13.65-.48,20.11-3.22,1.42-.61,3.11-.57,4.67-.85s3.2-.56,4.79-.9c.47-.1.94-.61,1.36-.55,7.82,1,14.22-3.32,21.17-5.55a2.7,2.7,0,0,1,1.49.05c9.08,2.81,18.66-2.72,27.74,1.7,1.16.57,3.32-.78,5-1.37,4.66-1.66,9.26-3.48,14-5a3.84,3.84,0,0,1,3,.8,17.3,17.3,0,0,1,2.58,2.71c13.42-2.12,26-4.22,38.64-6,2.45-.34,5.07.79,7.63,1,7,.46,13.59-.87,20.47-2.27,7.42-1.52,13.77-4.52,20.47-7.33,1.53-.64,3.9.87,5.57.37,2.7-.81,5-2.9,7.72-3.7,7.39-2.18,14.89-4,22.35-5.92,4.73-1.22,9.47-2.38,14.2-3.57.79-.2,1.66-.73,2.35-.55,7.61,2,14.18-1.22,20.84-4V0Z"/></svg>