<svg id="Layer_1" data-name="Layer 1" xmlns="http://www.w3.org/2000/svg" viewBox="0 0 1399.82 60.14"><title>separator-top</title><path d="M1399.82,60.14V34c-1.45-.28-3-1.11-4.32-.75-8.12,2.34-16.27-.57-24.35.37-2.91.33-5.73,1.44-8.57,2.24-.64.17-1.23.73-1.84.73-4.45,0-8.9-.19-13.35-.16a18.82,18.82,0,0,0-4.16.78c-5.17,1.23-10.29,2.73-15.51,3.64-1.66.29-3.58-1-5.39-1.49-1.25-.37-2.88-1.38-3.69-.93-6.19,3.4-11.63-.08-17.35-1.41a8.35,8.35,0,0,0-4.47.81c-5,2-10.84.23-15.44,3.87-.39.31-2.07-.5-2.75-1.18a18.19,18.19,0,0,1-2.28-3c-8.74.6-16.63,1.1-24.52,1.71a69.72,69.72,0,0,0-7.32,1c-5.76,1.06-11.1-1.24-16.65-1.82-5.95-.62-12.08-1.84-17.88,1.11-.55.28-1.31.1-2,.21l-15,2.38c-2.9-4.63-4.27-4.3-10-.8-3.93,2.4-9,3-13.56,4.31-3.51,1-7.09,1.67-10.62,2.56-7.09,1.79-14.14,3.71-21.26,5.37a11.68,11.68,0,0,1-4.86-.33c-5.23-1.1-10,.62-15,1.71-7.62,1.65-15.43,6.16-23.35.66a1.28,1.28,0,0,0-.93-.23c-8.72,2.57-15.24-6.27-23.84-4.63-.75.14-1.87-1.23-2.7-2-5.33-5.1-7.31-5.77-14-2.47-8.48,4.21-16.69,2.17-25.18.39-5.64-1.18-11.49-1.43-17.25-1.95-3.12-.27-6.29,0-9.39-.36-5.23-.6-9.09,1.77-13.31,4.44-1.77,1.13-7.07.09-8-1.57-2.85-4.83-7.7-3.68-11.5-5.43C963,39.36,957.9,36.7,952.7,34.21a9.24,9.24,0,0,0-2.86-.71c-10.17-1.35-19.1-5.84-28.19-10.28-5.62-2.74-12.13-4.07-18.2-.45-4.37,2.61-8.71,3.63-13.58,1.58a6.29,6.29,0,0,0-3.37-.13c-4.83.89-9.64,1.91-14.85,3-1.82-5.95-6.3-6-11.19-5.81-3.91.15-7.54.11-11.41-2.6s-9.33-2.57-14-4c-6.94-2.13-13.82-4.51-20.69-6.89-.85-.3-1.38-1.46-2.22-1.84C810.87,5.46,809,4.46,808.19,5c-9,5.74-18.72,4.39-28.46,3.05a8.75,8.75,0,0,0-4.79.34c-6.51,3.23-11.94,0-16-3.95C757,2.51,754.77,1.64,752.91,0h-1C749,1,746,2.05,743,3c-1.52.46-3.36.27-4.63,1-4.91,3-9.65,6.35-13.14,8.68-3.91-.41-6.38-.84-8.86-.91-5.67-.17-10.95.39-16.68-2.74-5-2.75-12-1-17.05,2.82-4,3-8,2.7-12.55,2.27-5-.46-10,.27-15.09-.05-1.37-.09-2.81,1.49-4.28,2.18a27.38,27.38,0,0,1-4.81,2c-3.73,1-7.51,1.74-11.27,2.56-1,.21-2.18.83-2.86.46-8.12-4.38-17,.59-25.26-2.2-1.49-.51-3.29-.49-4.53-1.33-8-5.38-16.58-7.38-26.07-5.42a9.66,9.66,0,0,1-4.34.09c-7.32-2.09-14.31-.87-21.29,1.52-1.43.49-3.12.23-4.68.31s-3,.09-4.45.25c-.63.07-1.29.73-1.84.62-7.73-1.54-14.43,2.35-21.6,3.8-2.38.48-5.18-1.1-7.8-1.72-1.25-.29-2.9-1.17-3.72-.68-6,3.51-11.26-.67-16.86-1.11-3.31-.27-6.77.86-10.11,1.63-3.53.8-6.95,2.1-10.5,2.76-.8.15-2.23-1.24-2.84-2.24-1.45-2.39-3.11-2.31-5.77-2-11.82,1.24-23.68,2.41-35.55,2.65-6.29.13-12.6-1.81-18.94-2.53a18,18,0,0,0-6.32.75c-7.73,2-15.88,2.44-23,6.53-.94.54-2.55,0-3.84-.18-1.08-.12-2.27-.74-3.2-.45-5.75,1.77-11.36,4-17.16,5.52-3,.78-6.26.16-9.34.62-5.57.82-11.13,2.95-16.64,2.76a81,81,0,0,0-24.7,2.53c-4,1.11-7.9,2.43-11.76,3.89-4.86,1.83-15.45-.25-17.87-2.67-10.61,0-19.95.09-29.29-.1-1.47,0-2.87-1.46-4.39-2-1.35-.48-3-1.24-4.18-.84-7.78,2.6-15.37,1.19-23.21.11a31,31,0,0,0-16.28,2.52c-3,1.25-6.89.51-10.34.21-5.42-.48-10.82-1.31-16.22-2.05-3.34-.46-6.67-1-10-1.55-7.77-1.29-15.74-1.93-23.26-4.09-11.61-3.32-22.06.93-33,3.07C92.56,32,83.27,35,73.89,30.88a6.81,6.81,0,0,0-4.4.16c-5,1.66-9.07-1.23-13.49-2.57-2.21-.67-4.74-.25-7.07-.61-4.06-.63-8.81-.37-12-2.45-7.5-5-14.37-1.57-21.43.09C10.3,26.74,5.18,28.48,0,30V60.14Z"/></svg>