<svg id="Layer_1" data-name="Layer 1" xmlns="http://www.w3.org/2000/svg" viewBox="0 0 1399.82 217.74"><title>testimonials-mask-xxxl</title><path d="M0,194.4v-180c5.18-.73,10.3-1.56,15.54-2.16,7.06-.8,13.93-2.43,21.43,0,3.15,1,7.9.87,12,1.18,2.33.17,4.86,0,7.07.29,4.42.64,8.44,2,13.49,1.23a13.81,13.81,0,0,1,4.4-.07c9.34,2,18.63.53,27.69-.33,10.94-1,21.39-3.08,33-1.48,7.52,1,15.49,1.35,23.26,2,3.32.26,6.65.52,10,.74,5.4.36,10.8.75,16.22,1,3.45.15,7.38.49,10.34-.1a62,62,0,0,1,16.28-1.21c7.84.52,15.43,1.2,23.21,0a14.71,14.71,0,0,1,4.18.4c1.52.27,2.92,1,4.39,1,9.34.1,18.68.05,29.29.05,2.42,1.17,13,2.17,17.87,1.29,3.86-.71,7.79-1.34,11.76-1.87A164.45,164.45,0,0,1,326.12,15c5.51.09,11.07-.93,16.64-1.33,3.08-.22,6.38.08,9.34-.29,5.8-.73,11.41-1.8,17.16-2.66a19.14,19.14,0,0,1,3.2.22,15.76,15.76,0,0,0,3.84.09c7.17-2,15.32-2.19,23-3.14a36.77,36.77,0,0,1,6.32-.36c6.34.35,12.65,1.28,18.94,1.22,11.87-.12,23.73-.68,35.55-1.28,2.66-.13,4.32-.17,5.77,1a5.28,5.28,0,0,0,2.84,1.08c3.55-.32,7-1,10.5-1.33a69.16,69.16,0,0,1,10.11-.78c5.6.21,10.87,2.22,16.86.53.82-.23,2.47.19,3.72.33,2.62.3,5.42,1.06,7.8.83,7.17-.7,13.87-2.57,21.6-1.83a15.25,15.25,0,0,0,1.84-.3c1.47-.07,3-.08,4.45-.12a36.48,36.48,0,0,0,4.68-.15A70.47,70.47,0,0,1,571.57,6a19.68,19.68,0,0,0,4.34,0A62.59,62.59,0,0,1,602,8.52a33.38,33.38,0,0,0,4.53.64c8.23,1.34,17.14-1,25.26,1.06a10.63,10.63,0,0,0,2.86-.22c3.76-.39,7.54-.76,11.27-1.23,1.66-.25,3.27-.57,4.81-1s2.91-1.09,4.28-1c5.06.15,10.13-.2,15.09,0,4.59.21,8.56.34,12.55-1.09,5.1-1.82,12-2.67,17-1.35,5.73,1.5,11,1.23,16.68,1.32,2.48,0,5,.24,8.86.43,3.49-1.12,8.23-2.71,13.14-4.17A37,37,0,0,1,743,1.44c3-.44,5.92-1,8.88-1.44h1c1.9.82,4.13,1.23,6.13,2.15a23.82,23.82,0,0,0,16,1.9,17.76,17.76,0,0,1,4.73-.18c9.74.65,19.42,1.3,28.46-1.44.79-.24,2.68.24,3.94.51.84.18,1.37.74,2.22.88C821.22,5,828.1,6.11,835,7.14c4.68.69,10.25.66,14,1.92s7.5,1.32,11.41,1.25c4.89-.09,9.37-.07,11.19,2.79,5.21-.51,10-1,14.85-1.44a12.67,12.67,0,0,1,3.37.06A28.13,28.13,0,0,0,903.44,11c6.07-1.74,12.58-1.1,18.2.22,9.09,2.13,18,4.29,28.19,4.94a17.48,17.48,0,0,1,2.86.34c5.2,1.19,10.31,2.47,15.54,3.63,3.8.85,8.65.29,11.5,2.61,1,.8,6.27,1.3,8,.76,4.22-1.29,8.08-2.4,13.31-2.14,3.1.18,6.27.05,9.39.18,5.76.25,11.61.37,17.25.93,8.49.86,16.7,1.84,25.18-.18,6.65-1.59,8.63-1.27,14,1.18a7.06,7.06,0,0,0,2.7,1c8.6-.78,15.12,3.46,23.84,2.23a2.53,2.53,0,0,1,.93.11c7.92,2.64,15.73.48,23.35-.32,5-.52,9.79-1.35,15-.82a23.84,23.84,0,0,0,4.86.16c7.12-.8,14.17-1.72,21.26-2.58,3.53-.43,7.11-.76,10.62-1.23,4.59-.61,9.63-.92,13.56-2.07,5.72-1.68,7.09-1.84,10,.38l15-1.14a16.33,16.33,0,0,0,2-.1c5.8-1.42,11.93-.83,17.88-.53,5.55.27,10.89,1.38,16.65.87q3.63-.33,7.32-.48c7.89-.29,15.78-.53,24.52-.82a14.16,14.16,0,0,0,2.28,1.44,6.56,6.56,0,0,0,2.75.57c4.6-1.75,10.48-.92,15.44-1.86a16.38,16.38,0,0,1,4.47-.39c5.72.64,11.16,2.31,17.35.67.81-.21,2.44.27,3.69.45,1.81.25,3.73.86,5.39.72,5.22-.44,10.34-1.16,15.51-1.75a37.59,37.59,0,0,1,4.16-.38c4.45,0,8.9.08,13.35.08a16,16,0,0,0,1.84-.35c2.84-.38,5.66-.92,8.57-1.08,8.08-.45,16.23,1,24.35-.17a20.64,20.64,0,0,1,4.32.36v167c-6.66,1.33-13.23,2.89-20.84,1.93a10.5,10.5,0,0,0-2.35.26c-4.73.57-9.47,1.13-14.2,1.71-7.46.93-15,1.8-22.35,2.85-2.7.38-5,1.39-7.72,1.78-1.67.24-4-.48-5.57-.18a194,194,0,0,1-20.47,3.52,157,157,0,0,1-20.47,1.09c-2.56-.08-5.18-.62-7.63-.48-12.64.85-25.22,1.86-38.64,2.88a17.24,17.24,0,0,0-2.58-1.3,7.07,7.07,0,0,0-3-.38c-4.7.74-9.3,1.61-14,2.4-1.65.28-3.81.93-5,.66-9.08-2.13-18.66.53-27.74-.82a5.71,5.71,0,0,0-1.49,0c-7,1.07-13.35,3.15-21.17,2.66a10.87,10.87,0,0,0-1.36.27c-1.59.16-3.19.3-4.79.43a44.35,44.35,0,0,0-4.67.41,72.67,72.67,0,0,1-20.11,1.55,38.79,38.79,0,0,0-6.31.31c-8.78.87-17.19.64-25.09-1.64a34.39,34.39,0,0,0-4.58-.52c-8.4-1-16.8,1.65-25.23,0a6.29,6.29,0,0,0-2.76.24c-5.83,2.4-14.3,1.38-20.44,4-2.93,1.25-9.47,1-14.24.72-5.12-.26-9.16.08-13.25,1.65a36.11,36.11,0,0,1-17.33,1.89c-3.43-.41-7-.64-10.38-1.07-4.22-.55-8.31,2-12.57.07a4.73,4.73,0,0,0-1.72.31c-4.08,1.48-8.12,3-12.18,4.5a6.83,6.83,0,0,1-1.6.51c-5.72.66-11.46,1.28-17.11,1.92-2.19-2.76-7.06-3.42-11.65-3.39-7.88.08-15.74.45-23.51,1.1-5.32.43-10.41,1.48-15.63,2.21-1.3.18-3.31.54-4,.26-6.81-2.92-15.83-2.4-23.72-3.59-5-.75-11-.37-15.29-1.54s-8.2-.74-12.23-.56c-3.63.15-7.08.73-9.36-1.3a6,6,0,0,0-3-.49c-3.54.32-7,.82-10.53,1.18-1.89.19-3.85.22-5.76.36-3.93.3-8.71.05-11.59,1.05-6.38,2.21-13.23,1.6-19.32.91-6.89-.77-12.78-3-20.56-3.19-5.8-.14-11.43-1.73-17.18-2.61-3.5-.53-7.07-1-10.61-1.44-3.22-.42-7-.48-9.57-1.32-5.13-1.68-8.53-1.92-13.58-.13a13.2,13.2,0,0,1-3.84,1c-6.92.3-13.85.67-20.78.66q-12,0-24-.7a34.41,34.41,0,0,0-12.46,1.44c-5,1.5-10,2-14.59-.48a6.49,6.49,0,0,0-2.46-.76c-5-.29-10-.48-15-.7l.15.64c-1.74.21-3.46.48-5.23.63a60.66,60.66,0,0,1-7.82.38c-6.45-.38-13.78-.23-19-1.72-6.6-1.88-13.14-2.11-20-2.16-4.44,0-9,.85-13.06-.71a4,4,0,0,0-1.82-.06c-5.76,2.76-14.47.94-21.09,3.34-3.25,1.17-10.42.63-15.53.28-4.46-.3-8.06-.32-11.94.79-4.06,1.18-8.23,2.46-13.4,1.9-2.13-.23-4.2-.58-6.3-.88-2.37-.33-4.7-.73-7.1-1-4.9-.5-9.65.61-15-.14-3.17-.45-8.06,1.84-12.09,3-1.38.39-2.37,1.31-3.74,1.45-5.71.48-11.5.79-16.93,1.13-2.08-2.27-6.68-3.76-11.83-3.84-7.33-.23-14.74.29-22.09.16-6.51-.12-12.62,0-18.15,1.92a7.42,7.42,0,0,1-3-.22c-2.11-.5-4-1.29-6.16-1.67-6.85-1.19-13.78-2.28-20.74-3.33-3.72-.55-8.83-.35-11.07-1.5-3.38-1.74-6.8-1.14-10.31-1.27-2.61-.09-5.26,0-7.85,0l-3.93-2.68c-7.27-.69-13.63,2.44-21.15.82-2.22-.48-6.16.24-8.73.92a42.11,42.11,0,0,1-20.94-.21,193.8,193.8,0,0,0-26.51-4.73c-1.55-.15-2.93-.67-4.44-1-6.18-1.17-12.41-2.29-18.56-3.5a34.38,34.38,0,0,1-6.51-1.63c-2.95-1.29-8.45-1.68-11.66-.46-4.69,1.79-10.41,1.79-15.73,1.64-5.9-.16-11.66-1.21-17.57-1.6-5.44-.36-11.14-.06-16.46-.63a31.13,31.13,0,0,0-13,1.14,18.6,18.6,0,0,1-13.18-1,6.85,6.85,0,0,0-2.68-1c-8.7.37-15.52-3.48-24.45-2.49a6.58,6.58,0,0,1-1.42-.16c-2.54-.28-5-.66-7.62-.83-5-.33-10-.6-15-.78-5.38-.2-11.2-.94-16.08-.25-8,1.15-15.41,3.34-23.21,4.92-4.26.87-8.87,2-13.23,2C8.86,190.92,4,192,0,194.4Z"/></svg>