<svg id="Layer_1" data-name="Layer 1" xmlns="http://www.w3.org/2000/svg" viewBox="0 0 1399.82 367.5"><title>testimonials-mask-xl</title><path d="M0,328.11V24.38c5.18-1.23,10.3-2.65,15.54-3.65,7.06-1.35,13.93-4.11,21.43-.07,3.15,1.68,7.9,1.47,12,2,2.33.29,4.86-.05,7.07.5,4.42,1.08,8.44,3.43,13.49,2.08a8.32,8.32,0,0,1,4.4-.13c9.34,3.34,18.63.91,27.69-.56,10.94-1.73,21.39-5.18,33-2.49,7.52,1.75,15.49,2.27,23.26,3.32,3.32.45,6.65.88,10,1.26,5.4.6,10.8,1.27,16.22,1.66,3.45.24,7.38.81,10.34-.17a37.57,37.57,0,0,1,16.28-2.05c7.84.88,15.43,2,23.21-.08,1.17-.33,2.83.29,4.18.68,1.52.44,2.92,1.62,4.39,1.62,9.34.15,18.68.08,29.29.08,2.42,2,13,3.65,17.87,2.17,3.86-1.19,7.79-2.26,11.76-3.16a99.1,99.1,0,0,1,24.7-2.05c5.51.15,11.07-1.57,16.64-2.24,3.08-.37,6.38.13,9.34-.5,5.8-1.24,11.41-3,17.16-4.48.93-.23,2.12.27,3.2.37,1.29.1,2.9.58,3.84.14,7.17-3.32,15.32-3.69,23-5.29a21.62,21.62,0,0,1,6.32-.61c6.34.58,12.65,2.16,18.94,2,11.87-.19,23.73-1.14,35.55-2.15,2.66-.22,4.32-.28,5.77,1.62.61.81,2,1.94,2.84,1.82,3.55-.54,7-1.62,10.5-2.24,3.34-.62,6.8-1.54,10.11-1.32,5.6.36,10.87,3.75,16.86.9.82-.4,2.47.32,3.72.55,2.62.5,5.42,1.78,7.8,1.4,7.17-1.18,13.87-4.34,21.6-3.09.55.09,1.21-.44,1.84-.5,1.47-.13,3-.14,4.45-.2a22.9,22.9,0,0,0,4.68-.25c7-1.94,14-2.93,21.29-1.24a11.73,11.73,0,0,0,4.34-.07A38.81,38.81,0,0,1,602,14.39c1.24.68,3,.66,4.53,1.08,8.23,2.26,17.14-1.77,25.26,1.78.68.3,1.9-.2,2.86-.37,3.76-.67,7.54-1.29,11.27-2.08a32.36,32.36,0,0,0,4.81-1.62c1.47-.56,2.91-1.84,4.28-1.77,5.06.26,10.13-.33,15.09,0,4.59.35,8.56.56,12.55-1.84,5.1-3.07,12-4.52,17-2.29,5.73,2.54,11,2.09,16.68,2.23,2.48,0,5,.4,8.86.73,3.49-1.89,8.23-4.57,13.14-7,1.27-.63,3.11-.47,4.63-.81,3-.74,5.92-1.62,8.88-2.43h1c1.9,1.38,4.13,2.08,6.13,3.63,4,3.17,9.45,5.82,16,3.2a10.63,10.63,0,0,1,4.73-.29c9.74,1.08,19.42,2.18,28.46-2.44.79-.41,2.68.4,3.94.86.84.31,1.37,1.25,2.22,1.5C821.22,8.39,828.1,10.32,835,12c4.68,1.17,10.25,1.12,14,3.25s7.5,2.23,11.41,2.11c4.89-.15,9.37-.12,11.19,4.71,5.21-.85,10-1.68,14.85-2.44a7.82,7.82,0,0,1,3.37.11c4.87,1.62,9.21.81,13.58-1.28,6.07-2.94,12.58-1.86,18.2.36,9.09,3.6,18,7.25,28.19,8.34a10.93,10.93,0,0,1,2.86.58c5.2,2,10.31,4.17,15.54,6.13,3.8,1.42,8.65.49,11.5,4.41,1,1.34,6.27,2.19,8,1.27,4.22-2.16,8.08-4.05,13.31-3.6,3.1.29,6.27.07,9.39.29,5.76.42,11.61.63,17.25,1.58,8.49,1.45,16.7,3.1,25.18-.31,6.65-2.68,8.63-2.13,14,2,.83.64,2,1.75,2.7,1.62,8.6-1.33,15.12,5.84,23.84,3.76a1.55,1.55,0,0,1,.93.18c7.92,4.46,15.73.82,23.35-.53,5-.88,9.79-2.28,15-1.39a14.16,14.16,0,0,0,4.86.27c7.12-1.35,14.17-2.9,21.26-4.35,3.53-.73,7.11-1.29,10.62-2.08,4.59-1,9.63-1.55,13.56-3.5,5.72-2.83,7.09-3.1,10,.65l15-1.93a9.42,9.42,0,0,0,2-.17c5.8-2.39,11.93-1.4,17.88-.9,5.55.47,10.89,2.34,16.65,1.48q3.63-.57,7.32-.81c7.89-.5,15.78-.9,24.52-1.39a15.33,15.33,0,0,0,2.28,2.43c.68.56,2.36,1.21,2.75,1,4.6-3,10.48-1.55,15.44-3.14a10.07,10.07,0,0,1,4.47-.66c5.72,1.08,11.16,3.91,17.35,1.15.81-.37,2.44.45,3.69.75,1.81.42,3.73,1.45,5.39,1.21,5.22-.74,10.34-1.95,15.51-2.95a22.23,22.23,0,0,1,4.16-.63c4.45,0,8.9.12,13.35.13.61,0,1.2-.46,1.84-.6a66.28,66.28,0,0,1,8.57-1.81c8.08-.76,16.23,1.62,24.35-.3,1.27-.29,2.87.38,4.32.61V309.46c-6.66,2.25-13.23,4.87-20.84,3.24a7,7,0,0,0-2.35.45c-4.73,1-9.47,1.91-14.2,2.89-7.46,1.57-15,3-22.35,4.81-2.7.64-5,2.34-7.72,3-1.67.4-4-.81-5.57-.3-6.7,2.27-13,4.71-20.47,5.93-6.88,1.15-13.51,2.22-20.47,1.85-2.56-.14-5.18-1.05-7.63-.81-12.64,1.44-25.22,3.14-38.64,4.87a15.28,15.28,0,0,0-2.58-2.2,4.48,4.48,0,0,0-3-.65c-4.7,1.25-9.3,2.72-14,4-1.65.48-3.81,1.58-5,1.12-9.08-3.59-18.66.9-27.74-1.38a3.26,3.26,0,0,0-1.49,0c-7,1.8-13.35,5.32-21.17,4.5-.42-.05-.89.36-1.36.44-1.59.28-3.19.51-4.79.73a26.24,26.24,0,0,0-4.67.69c-6.46,2.22-13,3.48-20.11,2.61a23.37,23.37,0,0,0-6.31.54c-8.78,1.46-17.19,1.07-25.09-2.78-1.28-.63-3.06-.55-4.58-.87-8.4-1.72-16.8,2.79-25.23,0a3.87,3.87,0,0,0-2.76.41c-5.83,4.05-14.3,2.32-20.44,6.74-2.93,2.12-9.47,1.62-14.24,1.21-5.12-.44-9.16.14-13.25,2.79a22.7,22.7,0,0,1-17.33,3.2c-3.43-.7-7-1.08-10.38-1.82-4.22-.92-8.31,3.41-12.57.12-.19-.15-1.23.22-1.72.52-4.08,2.51-8.12,5.06-12.18,7.6a5.13,5.13,0,0,1-1.6.86c-5.72,1.11-11.46,2.16-17.11,3.24-2.19-4.66-7.06-5.77-11.65-5.72a190.2,190.2,0,0,0-23.51,1.86c-5.32.73-10.41,2.5-15.63,3.73-1.3.31-3.31.91-4,.44-6.81-4.92-15.83-4.05-23.72-6.07-5-1.26-11-.62-15.29-2.59s-8.2-1.24-12.23-.95c-3.63.26-7.08,1.23-9.36-2.2-.38-.56-2-.95-3-.81-3.54.54-7,1.38-10.53,2-1.89.32-3.85.36-5.76.61-3.93.49-8.71.07-11.59,1.76-6.38,3.73-13.23,2.7-19.32,1.55-6.89-1.3-12.78-5.06-20.56-5.39-5.8-.24-11.43-2.92-17.18-4.4-3.5-.91-7.07-1.62-10.61-2.44-3.22-.71-7-.81-9.57-2.23-5.13-2.83-8.53-3.24-13.58-.22a9.26,9.26,0,0,1-3.84,1.62c-6.92.52-13.85,1.13-20.78,1.11q-12,0-24-1.17a21.34,21.34,0,0,0-12.46,2.44c-5,2.53-10,3.3-14.59-.82a4.83,4.83,0,0,0-2.46-1.29c-5-.48-10-.81-15-1.18l.15,1.09c-1.74.35-3.46.81-5.23,1.05-2.59.33-5.28.9-7.82.65-6.45-.65-13.78-.4-19-2.9-6.6-3.17-13.14-3.56-20-3.64-4.44,0-9,1.43-13.06-1.21a2.39,2.39,0,0,0-1.82-.1c-5.76,4.66-14.47,1.58-21.09,5.63-3.25,2-10.42,1.07-15.53.49-4.46-.52-8.06-.56-11.94,1.33-4.06,2-8.23,4.15-13.4,3.2-2.13-.39-4.2-1-6.3-1.48-2.37-.56-4.7-1.24-7.1-1.62-4.9-.85-9.65,1-15-.24-3.17-.76-8.06,3.11-12.09,5-1.38.65-2.37,2.19-3.74,2.43-5.71.81-11.5,1.34-16.93,1.91-2.08-3.82-6.68-6.34-11.83-6.48-7.33-.38-14.74.5-22.09.27-6.51-.2-12.62.06-18.15,3.25-.61.34-2.11,0-3-.37-2.11-.86-4-2.19-6.16-2.83-6.85-2-13.78-3.85-20.74-5.61-3.72-.93-8.83-.6-11.07-2.54-3.38-2.93-6.8-1.92-10.31-2.13-2.61-.16-5.26,0-7.85,0l-3.93-4.53c-7.27-1.17-13.63,4.11-21.15,1.38-2.22-.81-6.16.41-8.73,1.55-7.2,3.24-14.32,2.35-20.94-.35a124.49,124.49,0,0,0-26.51-8c-1.55-.26-2.93-1.13-4.44-1.62-6.18-2-12.41-3.88-18.56-5.9-2.27-.76-4.76-1.47-6.51-2.76-2.95-2.18-8.45-2.83-11.66-.77-4.69,3-10.41,3-15.73,2.76-5.9-.27-11.66-2-17.57-2.71-5.44-.6-11.14-.09-16.46-1.05a19.11,19.11,0,0,0-13,1.92,11.88,11.88,0,0,1-13.18-1.62c-.81-.66-1.85-1.73-2.68-1.67-8.7.62-15.52-5.87-24.45-4.21a4.16,4.16,0,0,1-1.42-.26c-2.54-.48-5-1.13-7.62-1.41-5-.55-10-1-15-1.31-5.38-.34-11.2-1.59-16.08-.42-8,1.93-15.41,5.63-23.21,8.31-4.26,1.46-8.87,3.42-13.23,3.28C8.86,322.23,4,324.05,0,328.11Z"/></svg>