<svg id="Layer_1" data-name="Layer 1" xmlns="http://www.w3.org/2000/svg" viewBox="0 0 1399.82 283.98"><title>testimonials-mask-xxl</title><path d="M0,253.54V18.84c5.18-.95,10.3-2.05,15.54-2.82C22.6,15,29.47,12.84,37,16c3.15,1.3,7.9,1.14,12,1.54,2.33.22,4.86,0,7.07.38,4.42.84,8.44,2.65,13.49,1.61a10.69,10.69,0,0,1,4.4-.1c9.34,2.58,18.63.7,27.69-.43,10.94-1.34,21.39-4,33-1.93,7.52,1.36,15.49,1.76,23.26,2.57,3.32.34,6.65.68,10,1,5.4.46,10.8,1,16.22,1.28,3.45.19,7.38.63,10.34-.13a47.91,47.91,0,0,1,16.28-1.58c7.84.68,15.43,1.56,23.21-.07a11.39,11.39,0,0,1,4.18.53c1.52.34,2.92,1.25,4.39,1.25,9.34.12,18.68.06,29.29.06,2.42,1.52,13,2.82,17.87,1.68,3.86-.92,7.79-1.74,11.76-2.44a127.65,127.65,0,0,1,24.7-1.59c5.51.12,11.07-1.21,16.64-1.72,3.08-.29,6.38.1,9.34-.39,5.8-1,11.41-2.35,17.16-3.46a14,14,0,0,1,3.2.28c1.29.08,2.9.45,3.84.11,7.17-2.56,15.32-2.85,23-4.09a28.29,28.29,0,0,1,6.32-.47c6.34.45,12.65,1.67,18.94,1.59,11.87-.16,23.73-.89,35.55-1.67,2.66-.16,4.32-.21,5.77,1.26a4.61,4.61,0,0,0,2.84,1.4c3.55-.41,7-1.25,10.5-1.73,3.34-.48,6.8-1.19,10.11-1,5.6.28,10.87,2.9,16.86.7.82-.31,2.47.24,3.72.42,2.62.39,5.42,1.38,7.8,1.08,7.17-.91,13.87-3.35,21.6-2.38.55.07,1.21-.35,1.84-.39,1.47-.1,3-.11,4.45-.16a28.11,28.11,0,0,0,4.68-.19c7-1.5,14-2.26,21.29-1a15.39,15.39,0,0,0,4.34-.06A48.81,48.81,0,0,1,602,11.12c1.24.52,3,.51,4.53.83,8.23,1.75,17.14-1.37,25.26,1.38.68.23,1.9-.16,2.86-.29,3.76-.51,7.54-1,11.27-1.6a36.85,36.85,0,0,0,4.81-1.26c1.47-.43,2.91-1.42,4.28-1.36,5.06.2,10.13-.26,15.09,0,4.59.27,8.56.43,12.55-1.42,5.1-2.38,12-3.49,17-1.77,5.73,2,11,1.61,16.68,1.72,2.48,0,5,.31,8.86.57,3.49-1.46,8.23-3.54,13.14-5.44,1.27-.49,3.11-.37,4.63-.63,3-.57,5.92-1.25,8.88-1.88h1c1.9,1.07,4.13,1.61,6.13,2.8,4,2.45,9.45,4.5,16,2.48a13.63,13.63,0,0,1,4.73-.23c9.74.84,19.42,1.69,28.46-1.88.79-.32,2.68.31,3.94.67.84.23,1.37,1,2.22,1.15C821.22,6.48,828.1,8,835,9.31c4.68.9,10.25.86,14,2.5s7.5,1.73,11.41,1.63c4.89-.11,9.37-.09,11.19,3.64,5.21-.65,10-1.29,14.85-1.88a10.3,10.3,0,0,1,3.37.08,21.79,21.79,0,0,0,13.58-1c6.07-2.26,12.58-1.43,18.2.29,9.09,2.78,18,5.59,28.19,6.44a14,14,0,0,1,2.86.44c5.2,1.56,10.31,3.23,15.54,4.75,3.8,1.09,8.65.37,11.5,3.4,1,1,6.27,1.69,8,1,4.22-1.67,8.08-3.13,13.31-2.78,3.1.23,6.27.06,9.39.23,5.76.32,11.61.48,17.25,1.22,8.49,1.11,16.7,2.39,25.18-.25,6.65-2.06,8.63-1.64,14,1.55.83.5,2,1.36,2.7,1.26,8.6-1,15.12,4.51,23.84,2.9a1.9,1.9,0,0,1,.93.14c7.92,3.45,15.73.63,23.35-.41,5-.69,9.79-1.76,15-1.07a18.35,18.35,0,0,0,4.86.2c7.12-1,14.17-2.24,21.26-3.36,3.53-.56,7.11-1,10.62-1.61,4.59-.79,9.63-1.19,13.56-2.7,5.72-2.19,7.09-2.4,10,.5l15-1.49a11.94,11.94,0,0,0,2-.13c5.8-1.85,11.93-1.08,17.88-.69,5.55.36,10.89,1.8,16.65,1.14q3.63-.43,7.32-.63c7.89-.38,15.78-.7,24.52-1.07a14.36,14.36,0,0,0,2.28,1.88,5.2,5.2,0,0,0,2.75.74c4.6-2.28,10.48-1.2,15.44-2.43a13,13,0,0,1,4.47-.51c5.72.84,11.16,3,17.35.89.81-.28,2.44.35,3.69.58,1.81.33,3.73,1.12,5.39.93,5.22-.57,10.34-1.51,15.51-2.28a29.92,29.92,0,0,1,4.16-.49c4.45,0,8.9.1,13.35.1a13.3,13.3,0,0,0,1.84-.45,84.57,84.57,0,0,1,8.57-1.41c8.08-.59,16.23,1.26,24.35-.23,1.27-.22,2.87.3,4.32.47v217.8c-6.66,1.74-13.23,3.76-20.84,2.51a8.45,8.45,0,0,0-2.35.34c-4.73.75-9.47,1.47-14.2,2.24-7.46,1.21-15,2.34-22.35,3.71-2.7.5-5,1.81-7.72,2.32-1.67.31-4-.63-5.57-.23-6.7,1.76-13,3.64-20.47,4.58-6.88.89-13.51,1.72-20.47,1.43-2.56-.1-5.18-.81-7.63-.62-12.64,1.1-25.22,2.42-38.64,3.76a14.59,14.59,0,0,0-2.58-1.7,5.51,5.51,0,0,0-3-.5c-4.7,1-9.3,2.1-14,3.13-1.65.37-3.81,1.22-5,.86-9.08-2.77-18.66.69-27.74-1.07a4.14,4.14,0,0,0-1.49,0c-7,1.4-13.35,4.12-21.17,3.48-.42,0-.89.28-1.36.34-1.59.22-3.19.39-4.79.57a32.18,32.18,0,0,0-4.67.53,56.18,56.18,0,0,1-20.11,2,29.43,29.43,0,0,0-6.31.41c-8.78,1.13-17.19.83-25.09-2.15a27.25,27.25,0,0,0-4.58-.67c-8.4-1.33-16.8,2.16-25.23,0a4.83,4.83,0,0,0-2.76.32c-5.83,3.13-14.3,1.79-20.44,5.21-2.93,1.63-9.47,1.25-14.24.93-5.12-.34-9.16.11-13.25,2.16a28.31,28.31,0,0,1-17.33,2.47c-3.43-.54-7-.84-10.38-1.41-4.22-.7-8.31,2.64-12.57.1a3.77,3.77,0,0,0-1.72.4c-4.08,1.94-8.12,3.91-12.18,5.87a5.79,5.79,0,0,1-1.6.67c-5.72.85-11.46,1.67-17.11,2.5-2.19-3.6-7.06-4.46-11.65-4.42-7.88.1-15.74.58-23.51,1.44-5.32.56-10.41,1.93-15.63,2.88-1.3.24-3.31.7-4,.34-6.81-3.8-15.83-3.13-23.72-4.69-5-1-11-.48-15.29-2s-8.2-1-12.23-.74c-3.63.2-7.08,1-9.36-1.69a4.77,4.77,0,0,0-3-.63c-3.54.41-7,1.06-10.53,1.53-1.89.26-3.85.29-5.76.47-3.93.39-8.71.06-11.59,1.36-6.38,2.89-13.23,2.09-19.32,1.2-6.89-1-12.78-3.91-20.56-4.16-5.8-.19-11.43-2.26-17.18-3.4-3.5-.7-7.07-1.26-10.61-1.88-3.22-.55-7-.63-9.57-1.73-5.13-2.19-8.53-2.5-13.58-.17a10.64,10.64,0,0,1-3.84,1.25c-6.92.4-13.85.88-20.78.86q-12,0-24-.9a26.71,26.71,0,0,0-12.46,1.88c-5,1.95-10,2.55-14.59-.63a5.44,5.44,0,0,0-2.46-1c-5-.37-10-.62-15-.91l.15.84c-1.74.28-3.46.63-5.23.81a46,46,0,0,1-7.82.51c-6.45-.51-13.78-.31-19-2.25-6.6-2.45-13.14-2.75-20-2.81-4.44,0-9,1.11-13.06-.94a3.13,3.13,0,0,0-1.82-.07c-5.76,3.6-14.47,1.22-21.09,4.35-3.25,1.53-10.42.83-15.53.37-4.46-.39-8.06-.42-11.94,1-4.06,1.54-8.23,3.21-13.4,2.48-2.13-.3-4.2-.75-6.3-1.14-2.37-.44-4.7-1-7.1-1.26-4.9-.65-9.65.8-15-.18-3.17-.59-8.06,2.4-12.09,3.87-1.38.51-2.37,1.7-3.74,1.88-5.71.63-11.5,1-16.93,1.48-2.08-2.95-6.68-4.9-11.83-5-7.33-.29-14.74.39-22.09.21-6.51-.15-12.62,0-18.15,2.51a5.86,5.86,0,0,1-3-.28c-2.11-.67-4-1.69-6.16-2.19-6.85-1.55-13.78-3-20.74-4.34-3.72-.72-8.83-.46-11.07-2-3.38-2.26-6.8-1.48-10.31-1.64-2.61-.13-5.26,0-7.85,0l-3.93-3.5c-7.27-.9-13.63,3.17-21.15,1.06-2.22-.62-6.16.32-8.73,1.2-7.2,2.51-14.32,1.82-20.94-.27a152.73,152.73,0,0,0-26.51-6.17,38.56,38.56,0,0,1-4.44-1.25c-6.18-1.53-12.41-3-18.56-4.56a28.42,28.42,0,0,1-6.51-2.13c-2.95-1.68-8.45-2.19-11.66-.6-4.69,2.33-10.41,2.33-15.73,2.14-5.9-.21-11.66-1.58-17.57-2.09-5.44-.47-11.14-.08-16.46-.82a24.1,24.1,0,0,0-13,1.49,14.71,14.71,0,0,1-13.18-1.26c-.81-.5-1.85-1.33-2.68-1.29-8.7.48-15.52-4.53-24.45-3.25a5.22,5.22,0,0,1-1.42-.2c-2.54-.37-5-.87-7.62-1.09-5-.43-10-.78-15-1-5.38-.25-11.2-1.22-16.08-.31-8,1.49-15.41,4.34-23.21,6.41-4.26,1.14-8.87,2.65-13.23,2.54C8.86,249,4,250.4,0,253.54Z"/></svg>