<svg id="Layer_1" data-name="Layer 1" xmlns="http://www.w3.org/2000/svg" viewBox="0 0 1399.82 453.16" preserveAspectRatio="none"><title>testimonials-mask</title><path class="testimonials-mask" width="100%" d="M0,404.53V30c5.18-1.52,10.3-3.26,15.54-4.5,7.06-1.66,13.93-5.07,21.43-.09,3.15,2.08,7.9,1.82,12,2.45,2.33.36,4.86-.06,7.07.61,4.42,1.34,8.44,4.23,13.49,2.57a6.81,6.81,0,0,1,4.4-.16C83.27,35,92.56,32,101.62,30.19c10.94-2.14,21.39-6.39,33-3.07,7.52,2.16,15.49,2.8,23.26,4.09,3.32.55,6.65,1.09,10,1.55,5.4.74,10.8,1.57,16.22,2.05,3.45.3,7.38,1,10.34-.21a31,31,0,0,1,16.28-2.52c7.84,1.08,15.43,2.49,23.21-.11,1.17-.4,2.83.36,4.18.84,1.52.55,2.92,2,4.39,2,9.34.19,18.68.1,29.29.1,2.42,2.42,13,4.5,17.87,2.67,3.86-1.46,7.79-2.78,11.76-3.89a81,81,0,0,1,24.7-2.53c5.51.19,11.07-1.94,16.64-2.76,3.08-.46,6.38.16,9.34-.62,5.8-1.52,11.41-3.75,17.16-5.52.93-.29,2.12.33,3.2.45,1.29.13,2.9.72,3.84.18,7.17-4.09,15.32-4.55,23-6.53a18,18,0,0,1,6.32-.75c6.34.72,12.65,2.66,18.94,2.53,11.87-.24,23.73-1.41,35.55-2.65,2.66-.27,4.32-.35,5.77,2,.61,1,2,2.39,2.84,2.24,3.55-.66,7-2,10.5-2.76,3.34-.77,6.8-1.9,10.11-1.63,5.6.44,10.87,4.62,16.86,1.11.82-.49,2.47.39,3.72.68,2.62.62,5.42,2.2,7.8,1.72,7.17-1.45,13.87-5.34,21.6-3.8.55.11,1.21-.55,1.84-.62,1.47-.16,3-.17,4.45-.25s3.25.18,4.68-.31c7-2.39,14-3.61,21.29-1.52a9.66,9.66,0,0,0,4.34-.09c9.49-2,18.09,0,26.07,5.42,1.24.84,3,.82,4.53,1.33,8.23,2.79,17.14-2.18,25.26,2.2.68.37,1.9-.25,2.86-.46,3.76-.82,7.54-1.59,11.27-2.56a27.38,27.38,0,0,0,4.81-2c1.47-.69,2.91-2.27,4.28-2.18,5.06.32,10.13-.41,15.09.05,4.59.43,8.56.69,12.55-2.27,5.1-3.79,12-5.57,17.05-2.82,5.73,3.13,11,2.57,16.68,2.74,2.48.07,5,.5,8.86.91,3.49-2.33,8.23-5.64,13.14-8.68,1.27-.78,3.11-.59,4.63-1,3-.91,5.92-2,8.88-3h1C754.77,1.64,757,2.51,759,4.41c4,3.91,9.45,7.18,16,3.95A8.75,8.75,0,0,1,779.73,8c9.74,1.34,19.42,2.69,28.46-3,.79-.51,2.68.49,3.94,1.06.84.38,1.37,1.54,2.22,1.84,6.87,2.38,13.75,4.76,20.69,6.89,4.68,1.44,10.25,1.38,14,4s7.5,2.75,11.41,2.6c4.89-.18,9.37-.14,11.19,5.81,5.21-1.05,10-2.07,14.85-3a6.29,6.29,0,0,1,3.37.13c4.87,2,9.21,1,13.58-1.58,6.07-3.62,12.58-2.29,18.2.45,9.09,4.44,18,8.93,28.19,10.28a9.24,9.24,0,0,1,2.86.71c5.2,2.49,10.31,5.15,15.54,7.57,3.8,1.75,8.65.6,11.5,5.43,1,1.66,6.27,2.7,8,1.57,4.22-2.67,8.08-5,13.31-4.44,3.1.36,6.27.09,9.39.36,5.76.52,11.61.77,17.25,1.95,8.49,1.78,16.7,3.82,25.18-.39,6.65-3.3,8.63-2.63,14,2.47.83.79,2,2.16,2.7,2,8.6-1.64,15.12,7.2,23.84,4.63a1.28,1.28,0,0,1,.93.23c7.92,5.5,15.73,1,23.35-.66,5-1.09,9.79-2.81,15-1.71a11.68,11.68,0,0,0,4.86.33c7.12-1.66,14.17-3.58,21.26-5.37,3.53-.89,7.11-1.59,10.62-2.56,4.59-1.27,9.63-1.91,13.56-4.31,5.72-3.5,7.09-3.83,10,.8l15-2.38c.64-.11,1.4.07,2-.21,5.8-2.95,11.93-1.73,17.88-1.11,5.55.58,10.89,2.88,16.65,1.82a69.72,69.72,0,0,1,7.32-1c7.89-.61,15.78-1.11,24.52-1.71a18.19,18.19,0,0,0,2.28,3c.68.69,2.36,1.49,2.75,1.18,4.6-3.64,10.48-1.91,15.44-3.87a8.35,8.35,0,0,1,4.47-.81c5.72,1.33,11.16,4.81,17.35,1.41.81-.45,2.44.56,3.69.93,1.81.52,3.73,1.78,5.39,1.49,5.22-.91,10.34-2.41,15.51-3.64a18.82,18.82,0,0,1,4.16-.78c4.45,0,8.9.15,13.35.16.61,0,1.2-.56,1.84-.73,2.84-.8,5.66-1.91,8.57-2.24,8.08-.94,16.23,2,24.35-.37,1.27-.36,2.87.47,4.32.75V381.53c-6.66,2.77-13.23,6-20.84,4-.69-.18-1.56.35-2.35.55-4.73,1.19-9.47,2.35-14.2,3.57-7.46,1.93-15,3.74-22.35,5.92-2.7.8-5,2.89-7.72,3.7-1.67.5-4-1-5.57-.37-6.7,2.81-13,5.81-20.47,7.32-6.88,1.41-13.51,2.74-20.47,2.28-2.56-.17-5.18-1.3-7.63-1-12.64,1.77-25.22,3.87-38.64,6a17.3,17.3,0,0,0-2.58-2.71,3.8,3.8,0,0,0-3-.8c-4.7,1.54-9.3,3.36-14,5-1.65.59-3.81,1.94-5,1.37-9.08-4.42-18.66,1.11-27.74-1.7a2.7,2.7,0,0,0-1.49-.05c-6.95,2.23-13.35,6.57-21.17,5.55-.42-.06-.89.45-1.36.55-1.59.34-3.19.62-4.79.9s-3.25.24-4.67.85c-6.46,2.74-13,4.29-20.11,3.22a19,19,0,0,0-6.31.66c-8.78,1.8-17.19,1.32-25.09-3.43-1.28-.77-3.06-.68-4.58-1.07-8.4-2.12-16.8,3.44-25.23,0a3.22,3.22,0,0,0-2.76.5c-5.83,5-14.3,2.87-20.44,8.32-2.93,2.61-9.47,2-14.24,1.49-5.12-.54-9.16.17-13.25,3.44a19.22,19.22,0,0,1-17.33,3.94c-3.43-.86-7-1.33-10.38-2.24-4.22-1.13-8.31,4.21-12.57.15-.19-.19-1.23.27-1.72.64-4.08,3.1-8.12,6.24-12.18,9.37a4.9,4.9,0,0,1-1.6,1.06c-5.72,1.37-11.46,2.67-17.11,4-2.19-5.75-7.06-7.12-11.65-7.06a154.83,154.83,0,0,0-23.51,2.3c-5.32.9-10.41,3.08-15.63,4.6-1.3.38-3.31,1.12-4,.54-6.81-6.07-15.83-5-23.72-7.48-5-1.56-11-.77-15.29-3.2s-8.2-1.53-12.23-1.17c-3.63.32-7.08,1.52-9.36-2.71-.38-.69-2-1.17-3-1-3.54.66-7,1.7-10.53,2.45-1.89.4-3.85.45-5.76.75-3.93.61-8.71.09-11.59,2.17-6.38,4.6-13.23,3.33-19.32,1.91-6.89-1.6-12.78-6.24-20.56-6.64-5.8-.3-11.43-3.6-17.18-5.43-3.5-1.12-7.07-2-10.61-3-3.22-.88-7-1-9.57-2.75-5.13-3.5-8.53-4-13.58-.28-1.17.86-2.51,1.92-3.84,2-6.92.64-13.85,1.4-20.78,1.37a208.66,208.66,0,0,1-24-1.44,18,18,0,0,0-12.46,3c-5,3.12-10,4.08-14.59-1a4.57,4.57,0,0,0-2.46-1.59c-5-.6-10-1-15-1.46l.15,1.34c-1.74.44-3.46,1-5.23,1.3-2.59.41-5.28,1.11-7.82.8-6.45-.8-13.78-.49-19-3.58-6.6-3.91-13.14-4.39-20-4.49-4.44-.06-9,1.77-13.06-1.49a2,2,0,0,0-1.82-.12c-5.76,5.74-14.47,1.95-21.09,6.94-3.25,2.45-10.42,1.32-15.53.6-4.46-.63-8.06-.68-11.94,1.64-4.06,2.45-8.23,5.12-13.4,3.95-2.13-.48-4.2-1.2-6.3-1.82-2.37-.69-4.7-1.53-7.1-2-4.9-1.05-9.65,1.27-15-.3-3.17-.93-8.06,3.84-12.09,6.19-1.38.8-2.37,2.71-3.74,3-5.71,1-11.5,1.65-16.93,2.36a13.42,13.42,0,0,0-11.83-8c-7.33-.46-14.74.62-22.09.34-6.51-.25-12.62.07-18.15,4-.61.43-2.11,0-3-.45-2.11-1.06-4-2.7-6.16-3.49-6.85-2.47-13.78-4.75-20.74-6.92-3.72-1.15-8.83-.74-11.07-3.13-3.38-3.61-6.8-2.37-10.31-2.63-2.61-.2-5.26,0-7.85,0l-3.93-5.58c-7.27-1.44-13.63,5.06-21.15,1.7-2.22-1-6.16.5-8.73,1.91-7.2,4-14.32,2.9-20.94-.43-8.52-4.28-17.16-7.91-26.51-9.84-1.55-.32-2.93-1.4-4.44-2-6.18-2.45-12.41-4.78-18.56-7.28-2.27-.93-4.76-1.81-6.51-3.4-2.95-2.68-8.45-3.49-11.66-.95-4.69,3.72-10.41,3.72-15.73,3.41-5.9-.34-11.66-2.52-17.57-3.34-5.44-.75-11.14-.12-16.46-1.3a16,16,0,0,0-13,2.37c-4.45,2.8-9.31,1.84-13.18-2-.81-.81-1.85-2.13-2.68-2.06-8.7.76-15.52-7.24-24.45-5.19-.43.1-.94-.2-1.42-.32-2.54-.59-5-1.39-7.62-1.74-5-.68-10-1.24-15-1.62-5.38-.41-11.2-1.95-16.08-.51-8,2.38-15.41,6.94-23.21,10.24-4.26,1.81-8.87,4.22-13.23,4.05C8.86,397.28,4,399.52,0,404.53Z"/></svg>