<svg id="Layer_1" data-name="Layer 1" xmlns="http://www.w3.org/2000/svg" viewBox="0 0 684 453.16"><title>testimonials-mask-sm</title><path d="M684,44.6a56.79,56.79,0,0,1-5.84-.22c-5.23-.56-9.09,1.77-13.31,4.44-1.73,1.13-7,.09-8-1.57-2.85-4.83-7.7-3.68-11.5-5.43-5.23-2.42-10.34-5.08-15.54-7.57a9.1,9.1,0,0,0-2.86-.71c-10.19-1.35-19.1-5.84-28.19-10.28-5.62-2.74-12.13-4.07-18.2-.45-4.37,2.58-8.71,3.58-13.58,1.58a6.33,6.33,0,0,0-3.37-.13c-4.85.93-9.64,1.95-14.85,3-1.82-6-6.3-6-11.19-5.81-3.91.15-7.66,0-11.41-2.6s-9.32-2.56-14-4c-6.94-2.13-13.82-4.51-20.69-6.89-.85-.3-1.38-1.46-2.22-1.84-1.26-.57-3.15-1.57-3.94-1.06-9,5.69-18.72,4.34-28.46,3a8.76,8.76,0,0,0-4.73.36c-6.55,3.23-12,0-16-3.95-2-1.9-4.23-2.77-6.13-4.47h-1c-3,1-5.88,2.09-8.88,3-1.52.41-3.36.22-4.63,1-4.91,3-9.65,6.35-13.14,8.68-3.86-.41-6.38-.84-8.86-.91-5.68-.17-11,.39-16.68-2.74-5.05-2.75-11.95-1-17.05,2.82-4,3-8,2.7-12.55,2.27-5-.46-10,.27-15.09,0-1.37-.09-2.81,1.49-4.28,2.18a27.28,27.28,0,0,1-4.81,2c-3.73,1-7.51,1.74-11.27,2.56-1,.21-2.18.83-2.86.46-8.12-4.38-17,.59-25.26-2.2-1.53-.51-3.29-.49-4.53-1.33-8-5.42-16.58-7.42-26.07-5.42a9.64,9.64,0,0,1-4.34.09c-7.29-2.09-14.29-.87-21.29,1.52-1.43.49-3.23.23-4.68.31s-3,.09-4.45.25c-.63.07-1.29.73-1.84.62-7.73-1.54-14.43,2.35-21.6,3.8-2.38.48-5.18-1.1-7.8-1.72-1.25-.29-2.9-1.17-3.72-.68-6,3.51-11.26-.67-16.86-1.11-3.31-.27-6.77.86-10.11,1.63-3.5.76-7,2.1-10.5,2.76-.84.15-2.23-1.24-2.84-2.24-1.45-2.35-3.11-2.27-5.77-2-11.82,1.24-23.68,2.41-35.55,2.65-6.29.13-12.6-1.81-18.94-2.53a18,18,0,0,0-6.32.75c-7.68,2-15.83,2.44-23,6.53-.94.54-2.55-.05-3.84-.18-1.08-.12-2.27-.74-3.2-.45-5.75,1.77-11.36,4-17.16,5.52-3,.78-6.26.16-9.34.62-5.57.82-11.13,2.95-16.64,2.76-1.08-.06-2.16-.09-3.24-.1V421.41c.85,0,1.69,0,2.53.08,3.51.26,6.93-1,10.31,2.63,2.24,2.39,7.35,2,11.07,3.13,7,2.17,13.89,4.45,20.74,6.92,2.16.79,4.05,2.43,6.16,3.49.89.45,2.39.88,3,.45,5.53-3.93,11.64-4.25,18.15-4,7.35.28,14.76-.8,22.09-.34a13.41,13.41,0,0,1,11.83,8c5.43-.71,11.22-1.36,16.93-2.36,1.37-.29,2.36-2.2,3.74-3,4-2.35,8.92-7.12,12.09-6.19,5.35,1.57,10.1-.75,15,.3,2.4.47,4.73,1.31,7.1,2,2.1.62,4.17,1.34,6.3,1.82,5.17,1.17,9.34-1.5,13.4-3.95,3.88-2.32,7.48-2.27,11.94-1.64,5.11.72,12.28,1.85,15.53-.6,6.62-5,15.33-1.2,21.09-6.94a2,2,0,0,1,1.82.12c4.06,3.26,8.62,1.43,13.06,1.49,6.86.1,13.4.58,20,4.49,5.22,3.09,12.55,2.78,19,3.58,2.54.31,5.23-.39,7.82-.8,1.77-.3,3.49-.86,5.23-1.3l-.15-1.34c5,.46,10,.86,15,1.46a4.56,4.56,0,0,1,2.46,1.59c4.59,5.08,9.59,4.12,14.59,1a18,18,0,0,1,12.46-3,209.31,209.31,0,0,0,24,1.44c6.93,0,13.86-.73,20.78-1.37,1.33-.08,2.67-1.14,3.84-2,5-3.72,8.45-3.22,13.58.28,2.57,1.75,6.35,1.87,9.57,2.75,3.54,1,7.11,1.88,10.61,3,5.75,1.83,11.38,5.13,17.18,5.43,7.78.4,13.67,5,20.56,6.64,6.09,1.42,12.94,2.69,19.32-1.91,2.88-2.08,7.66-1.56,11.59-2.17,1.91-.3,3.87-.35,5.76-.75,3.53-.75,7-1.79,10.53-2.45,1-.17,2.62.31,3,1,2.28,4.23,5.73,3,9.36,2.71,4-.36,7.94-1.26,12.23,1.17s10.29,1.64,15.29,3.2c7.89,2.48,16.91,1.41,23.72,7.48.69.58,2.7-.16,4-.54,5.22-1.52,10.31-3.7,15.63-4.6a155.87,155.87,0,0,1,23.51-2.3c4.59-.06,9.46,1.31,11.65,7.06,5.65-1.33,11.39-2.63,17.11-4a4.76,4.76,0,0,0,1.6-1.06c4.06-3.13,8.1-6.27,12.18-9.37.49-.37,1.53-.83,1.72-.64,4.26,4.06,8.35-1.28,12.57-.15,3.38.91,7,1.38,10.38,2.24a18.75,18.75,0,0,0,2.44.47Z"/></svg>